HIERARCHY
ROOT joint_Root
{
	OFFSET 0.0 0.0 0.0
	CHANNELS 6 Xposition Yposition Zposition Zrotation Xrotation Yrotation 
	JOINT Hips
	{
		OFFSET -17.1583 93.1646 452.98
		CHANNELS 6 Xposition Yposition Zposition Zrotation Xrotation Yrotation 
		JOINT Spine
		{
			OFFSET 15.7357 0.0 0.0
			CHANNELS 6 Xposition Yposition Zposition Zrotation Xrotation Yrotation 
			JOINT Chest
			{
				OFFSET 8.98455 -0.406207 0.0
				CHANNELS 6 Xposition Yposition Zposition Zrotation Xrotation Yrotation 
				JOINT Neck
				{
					OFFSET 16.3773 0.0 0.0
					CHANNELS 6 Xposition Yposition Zposition Zrotation Xrotation Yrotation 
					JOINT Head
					{
						OFFSET 6.45672 0.0 0.0
						CHANNELS 6 Xposition Yposition Zposition Zrotation Xrotation Yrotation 
						End Site
						{
							OFFSET 0.0 0.0 0.0
						}
					}
				}
				JOINT Shoulder_L
				{
					OFFSET 12.9942 -0.242716 4.98039
					CHANNELS 6 Xposition Yposition Zposition Zrotation Xrotation Yrotation 
					JOINT UpperArm_L
					{
						OFFSET 5.34809 0.0 0.0
						CHANNELS 6 Xposition Yposition Zposition Zrotation Xrotation Yrotation 
						JOINT LowerArm_L
						{
							OFFSET 24.3286 1.87007e-05 0.0
							CHANNELS 6 Xposition Yposition Zposition Zrotation Xrotation Yrotation 
							JOINT Hand_L
							{
								OFFSET 22.2916 0.0 0.0
								CHANNELS 6 Xposition Yposition Zposition Zrotation Xrotation Yrotation 
								End Site
								{
									OFFSET 0.0 0.0 0.0
								}
							}
						}
					}
				}
				JOINT Shoulder_R
				{
					OFFSET 12.9945 -0.242716 -4.98039
					CHANNELS 6 Xposition Yposition Zposition Zrotation Xrotation Yrotation 
					JOINT UpperArm_R
					{
						OFFSET -5.34813 0.0 0.0
						CHANNELS 6 Xposition Yposition Zposition Zrotation Xrotation Yrotation 
						JOINT LowerArm_R
						{
							OFFSET -24.3289 0.000322201 0.0
							CHANNELS 6 Xposition Yposition Zposition Zrotation Xrotation Yrotation 
							JOINT Hand_R
							{
								OFFSET -22.2915 -0.000108084 0.0
								CHANNELS 6 Xposition Yposition Zposition Zrotation Xrotation Yrotation 
								End Site
								{
									OFFSET 0.0 0.0 0.0
								}
							}
						}
					}
				}
			}
		}
		JOINT UpperLeg_L
		{
			OFFSET -2.19248 -6.46944 0.0
			CHANNELS 6 Xposition Yposition Zposition Zrotation Xrotation Yrotation 
			JOINT LowerLeg_L
			{
				OFFSET 39.0811 0.0 -1.23785e-05
				CHANNELS 6 Xposition Yposition Zposition Zrotation Xrotation Yrotation 
				JOINT Foot_L
				{
					OFFSET 40.9854 0.0 -1.26872e-05
					CHANNELS 6 Xposition Yposition Zposition Zrotation Xrotation Yrotation 
					JOINT Toes_L
					{
						OFFSET 11.7543 0.0 0.0
						CHANNELS 6 Xposition Yposition Zposition Zrotation Xrotation Yrotation 
						End Site
						{
							OFFSET 0.0 0.0 0.0
						}
					}
				}
			}
		}
		JOINT UpperLeg_R
		{
			OFFSET -2.19251 6.46944 0.0
			CHANNELS 6 Xposition Yposition Zposition Zrotation Xrotation Yrotation 
			JOINT LowerLeg_R
			{
				OFFSET -39.0811 -0.00228153 -0.0401928
				CHANNELS 6 Xposition Yposition Zposition Zrotation Xrotation Yrotation 
				JOINT Foot_R
				{
					OFFSET -40.9854 0.0 0.0
					CHANNELS 6 Xposition Yposition Zposition Zrotation Xrotation Yrotation 
					JOINT Toes_R
					{
						OFFSET -11.7543 0.0 0.0
						CHANNELS 6 Xposition Yposition Zposition Zrotation Xrotation Yrotation 
						End Site
						{
							OFFSET 0.0 0.0 0.0
						}
					}
				}
			}
		}
	}
}
MOTION
Frames:	9
Frame Time:	0.0333333
0.000000 0.000000 0.000000 0.000000 0.000000 -0.000000 -3.898730 91.358300 -1.727650 81.189800 -3.892010 6.500110 15.735700 0.000005 -0.000001 59.294400 87.019100 -55.001200 8.984550 -0.406207 -0.000000 -2.498980 -3.427300 8.513690 16.377300 -0.000001 -0.000001 16.777300 4.238220 7.696240 6.456720 -0.000001 -0.000000 8.091680 7.327740 7.257220 12.994200 -0.242716 4.980390 -91.780500 5.057690 -70.577200 5.348090 -0.000007 -0.000001 -77.130000 -14.986400 -1.482020 24.328600 0.000019 0.000005 41.237100 -42.550800 -127.649000 22.291600 -0.000001 0.000005 53.032800 4.914300 9.091270 12.994500 -0.242716 -4.980390 87.874600 5.968110 -70.356800 -5.348130 -0.000001 -0.000004 -68.705700 2.290290 -5.102280 -24.328900 0.000322 -0.000009 16.645600 -19.422400 -138.040000 -22.291500 -0.000108 -0.000004 62.275100 5.667050 -16.947000 -2.192480 -6.469440 -0.000000 -169.418000 5.235550 -3.582580 39.081100 -0.000007 -0.000012 0.501486 -0.770407 33.063000 40.985400 -0.000006 -0.000013 -1.065150 2.712760 -78.373500 11.754300 -0.000000 0.000003 0.000765 0.153570 -10.348700 -2.192510 6.469440 -0.000001 -167.164000 6.553450 -175.796000 -39.081100 -0.002282 -0.040193 0.163233 -0.483820 18.289500 -40.985400 0.000008 0.000006 5.676060 0.682501 -71.444900 -11.754300 -0.000006 -0.000006 -0.009003 0.263696 -5.862090
0.000000 0.000000 0.000000 0.000000 0.000000 -0.000000 -3.860010 91.369100 -1.738960 81.213400 -3.851700 6.405890 15.735700 0.000005 -0.000001 59.202800 87.053500 -54.940100 8.984550 -0.406207 -0.000000 -2.565140 -3.399980 8.451610 16.377300 -0.000001 -0.000001 16.825700 4.242940 7.649980 6.456720 -0.000001 -0.000000 7.999660 7.251000 7.292640 12.994200 -0.242716 4.980390 -91.779400 5.047640 -70.552200 5.348090 -0.000007 -0.000001 -77.147000 -15.062500 -1.567530 24.328600 0.000019 0.000005 40.942700 -42.296200 -127.802000 22.291600 -0.000001 0.000005 52.735300 4.917150 9.033960 12.994500 -0.242716 -4.980390 87.866800 5.986050 -70.344900 -5.348130 -0.000001 -0.000004 -68.645900 2.175910 -5.144620 -24.328900 0.000322 -0.000009 16.539900 -19.295700 -138.053000 -22.291500 -0.000108 -0.000004 62.243600 5.665140 -16.690100 -2.192480 -6.469440 -0.000000 -169.460000 5.231880 -3.675000 39.081100 -0.000007 -0.000012 0.500675 -0.770443 33.019400 40.985400 -0.000006 -0.000013 -1.028560 2.734730 -78.345400 11.754300 -0.000000 0.000003 0.000789 0.153084 -10.368400 -2.192510 6.469440 -0.000001 -167.215000 6.556360 -175.886000 -39.081100 -0.002282 -0.040193 0.163131 -0.483911 18.275500 -40.985400 0.000008 0.000006 5.659220 0.764133 -71.491500 -11.754300 -0.000006 -0.000006 -0.009188 0.265137 -5.803180
0.000000 0.000000 0.000000 0.000000 0.000000 -0.000000 -3.827680 91.363900 -1.740180 81.204800 -3.797470 6.386400 15.735700 0.000005 -0.000001 59.322200 87.061000 -55.075900 8.984550 -0.406207 -0.000000 -2.573010 -3.380620 8.418790 16.377300 -0.000001 -0.000001 16.904100 4.214660 7.613920 6.456720 -0.000001 -0.000000 7.853590 7.155170 7.266380 12.994200 -0.242716 4.980390 -91.790100 5.071370 -70.528300 5.348090 -0.000007 -0.000001 -77.142600 -15.097000 -1.685870 24.328600 0.000019 0.000005 40.992900 -42.214400 -127.709000 22.291600 -0.000001 0.000005 52.632400 4.913720 9.102850 12.994500 -0.242716 -4.980390 87.858900 5.995870 -70.306600 -5.348130 -0.000001 -0.000004 -68.656500 2.049230 -5.207400 -24.328900 0.000322 -0.000009 16.680900 -19.404200 -137.951000 -22.291500 -0.000108 -0.000004 62.253100 5.662380 -16.340500 -2.192480 -6.469440 -0.000000 -169.495000 5.311550 -3.735830 39.081100 -0.000007 -0.000012 0.507682 -0.779866 33.065000 40.985400 -0.000006 -0.000013 -1.015710 2.682300 -78.332700 11.754300 -0.000000 0.000003 0.000851 0.151800 -10.420500 -2.192510 6.469440 -0.000001 -167.257000 6.722680 -175.956000 -39.081100 -0.002282 -0.040193 0.164382 -0.485824 18.341300 -40.985400 0.000008 0.000006 5.647860 0.843111 -71.500100 -11.754300 -0.000006 -0.000006 -0.009060 0.264144 -5.843780
0.000000 0.000000 0.000000 0.000000 0.000000 -0.000000 -3.792610 91.373300 -1.746860 81.190000 -3.755340 6.372430 15.735700 0.000005 -0.000001 59.609400 87.051000 -55.369800 8.984550 -0.406207 -0.000000 -2.541680 -3.363580 8.406720 16.377300 -0.000001 -0.000001 16.944100 4.183360 7.548230 6.456720 -0.000001 -0.000000 7.660710 7.086170 7.188870 12.994200 -0.242716 4.980390 -91.794200 5.073780 -70.495700 5.348090 -0.000007 -0.000001 -77.163400 -15.191100 -1.773500 24.328600 0.000019 0.000005 40.973100 -42.170200 -127.705000 22.291600 -0.000001 0.000005 52.537400 4.901530 9.347030 12.994500 -0.242716 -4.980390 87.858200 5.993240 -70.293300 -5.348130 -0.000001 -0.000004 -68.718000 1.880230 -5.301390 -24.328900 0.000322 -0.000009 16.346100 -19.034200 -138.034000 -22.291500 -0.000108 -0.000004 62.104300 5.664160 -16.562700 -2.192480 -6.469440 -0.000000 -169.496000 5.325010 -3.746570 39.081100 -0.000007 -0.000012 0.500708 -0.769973 33.037100 40.985400 -0.000006 -0.000013 -0.993162 2.683770 -78.325100 11.754300 -0.000000 0.000003 0.000744 0.153979 -10.332100 -2.192510 6.469440 -0.000001 -167.252000 6.634490 -175.946000 -39.081100 -0.002282 -0.040193 0.161057 -0.477412 18.283200 -40.985400 0.000008 0.000006 5.611110 0.791158 -71.482300 -11.754300 -0.000006 -0.000006 -0.009455 0.267187 -5.719380
0.000000 0.000000 0.000000 0.000000 0.000000 -0.000000 -3.759580 91.371600 -1.750150 81.186200 -3.715530 6.367330 15.735700 0.000005 -0.000001 59.781500 87.041900 -55.551200 8.984550 -0.406207 -0.000000 -2.517470 -3.355810 8.388810 16.377300 -0.000001 -0.000001 16.974900 4.175760 7.510840 6.456720 -0.000001 -0.000000 7.479880 7.032390 7.073720 12.994200 -0.242716 4.980390 -91.812700 5.111180 -70.443000 5.348090 -0.000007 -0.000001 -77.089800 -15.312000 -1.782650 24.328600 0.000019 0.000005 40.761400 -42.063600 -127.855000 22.291600 -0.000001 0.000005 52.501500 4.901810 9.341430 12.994500 -0.242716 -4.980390 87.857300 5.984770 -70.259700 -5.348130 -0.000001 -0.000004 -68.753300 1.834450 -5.361260 -24.328900 0.000322 -0.000009 16.205100 -18.876300 -138.066000 -22.291500 -0.000108 -0.000004 62.029100 5.661930 -16.287200 -2.192480 -6.469440 -0.000000 -169.523000 5.361760 -3.781020 39.081100 -0.000007 -0.000012 0.510234 -0.783728 33.066900 40.985400 -0.000006 -0.000013 -0.966277 2.697950 -78.348100 11.754300 -0.000000 0.000003 0.000673 0.155408 -10.274000 -2.192510 6.469440 -0.000001 -167.258000 6.607680 -175.988000 -39.081100 -0.002282 -0.040193 0.162072 -0.479398 18.322000 -40.985400 0.000008 0.000006 5.566830 0.687708 -71.460600 -11.754300 -0.000006 -0.000006 -0.009352 0.266398 -5.751640
0.000000 0.000000 0.000000 0.000000 0.000000 -0.000000 -3.723610 91.383500 -1.758980 81.194400 -3.664500 6.301720 15.735700 0.000005 -0.000001 59.939200 87.052600 -55.720500 8.984550 -0.406207 -0.000000 -2.529190 -3.330380 8.365920 16.377300 -0.000001 -0.000001 16.987200 4.152340 7.501240 6.456720 -0.000001 -0.000000 7.363880 6.933630 6.932920 12.994200 -0.242716 4.980390 -91.819200 5.130560 -70.446800 5.348090 -0.000007 -0.000001 -77.042500 -15.508800 -1.775440 24.328600 0.000019 0.000005 40.707000 -42.036500 -127.893000 22.291600 -0.000001 0.000005 52.524900 4.898690 9.403780 12.994500 -0.242716 -4.980390 87.874200 5.924860 -70.221900 -5.348130 -0.000001 -0.000004 -68.827500 1.827400 -5.399440 -24.328900 0.000322 -0.000009 15.935500 -18.579600 -138.135000 -22.291500 -0.000108 -0.000004 62.315900 5.660510 -16.117600 -2.192480 -6.469440 -0.000000 -169.545000 5.366970 -3.854270 39.081100 -0.000007 -0.000012 0.504635 -0.776469 33.021700 40.985400 -0.000006 -0.000013 -0.938824 2.704450 -78.273800 11.754300 -0.000000 0.000003 0.000781 0.153234 -10.362300 -2.192510 6.469440 -0.000001 -167.292000 6.672940 -176.042000 -39.081100 -0.002282 -0.040193 0.161099 -0.477881 18.271100 -40.985400 0.000008 0.000006 5.550450 0.726667 -71.468900 -11.754300 -0.000006 -0.000006 -0.009424 0.266952 -5.728980
0.000000 0.000000 0.000000 0.000000 0.000000 -0.000000 -3.691710 91.392400 -1.767670 81.200700 -3.618940 6.232030 15.735700 0.000005 -0.000001 60.166800 87.075700 -55.965400 8.984550 -0.406207 -0.000000 -2.559840 -3.286650 8.331320 16.377300 -0.000001 -0.000001 16.987000 4.153930 7.513730 6.456720 -0.000001 -0.000000 7.242630 6.877110 6.835750 12.994200 -0.242716 4.980390 -91.821500 5.124900 -70.403500 5.348090 -0.000007 -0.000001 -77.015500 -15.633900 -1.828800 24.328600 0.000019 0.000005 40.738900 -42.003900 -127.845000 22.291600 -0.000001 0.000005 52.489800 4.893560 9.506000 12.994500 -0.242716 -4.980390 87.884000 5.894950 -70.214300 -5.348130 -0.000001 -0.000004 -68.836100 1.733510 -5.345200 -24.328900 0.000322 -0.000009 15.676600 -18.332300 -138.257000 -22.291500 -0.000108 -0.000004 62.677200 5.656500 -15.672800 -2.192480 -6.469440 -0.000000 -169.577000 5.405240 -3.923880 39.081100 -0.000007 -0.000012 0.508715 -0.783733 32.988800 40.985400 -0.000006 -0.000013 -0.906725 2.720410 -78.237800 11.754300 -0.000000 0.000003 0.000835 0.152130 -10.407100 -2.192510 6.469440 -0.000001 -167.293000 6.618470 -176.105000 -39.081100 -0.002282 -0.040193 0.161205 -0.479572 18.222300 -40.985400 0.000008 0.000006 5.513120 0.628495 -71.404400 -11.754300 -0.000006 -0.000006 -0.009164 0.264952 -5.810770
0.000000 0.000000 0.000000 0.000000 0.000000 -0.000000 -3.664430 91.405300 -1.777030 81.183600 -3.531770 6.179200 15.735700 0.000005 -0.000001 60.115300 87.076000 -55.916200 8.984550 -0.406207 -0.000000 -2.562820 -3.290860 8.326600 16.377300 -0.000001 -0.000001 16.945700 4.117620 7.506310 6.456720 -0.000001 -0.000000 7.170760 6.816090 6.701300 12.994200 -0.242716 4.980390 -91.822800 5.122750 -70.383100 5.348090 -0.000007 -0.000001 -76.922800 -15.863600 -1.838720 24.328600 0.000019 0.000005 40.622400 -41.898900 -127.902000 22.291600 -0.000001 0.000005 52.333100 4.885360 9.668500 12.994500 -0.242716 -4.980390 87.904300 5.833810 -70.200400 -5.348130 -0.000001 -0.000004 -68.892700 1.380620 -5.325440 -24.328900 0.000322 -0.000009 15.332800 -17.929700 -138.310000 -22.291500 -0.000108 -0.000004 62.648000 5.657750 -15.806700 -2.192480 -6.469440 -0.000000 -169.574000 5.461070 -3.990020 39.081100 -0.000007 -0.000012 0.503608 -0.776992 32.950700 40.985400 -0.000006 -0.000013 -0.899759 2.694300 -78.190100 11.754300 -0.000000 0.000003 0.000877 0.151252 -10.442800 -2.192510 6.469440 -0.000001 -167.280000 6.577920 -176.127000 -39.081100 -0.002282 -0.040193 0.158903 -0.475209 18.128200 -40.985400 0.000008 0.000006 5.474940 0.552491 -71.378000 -11.754300 -0.000006 -0.000006 -0.009283 0.265869 -5.773280
0.000000 0.000000 0.000000 0.000000 0.000000 -0.000000 -3.627230 91.414400 -1.792690 81.203700 -3.478710 6.076940 15.735700 0.000005 -0.000001 60.322300 87.092200 -56.141300 8.984550 -0.406207 -0.000000 -2.582500 -3.255520 8.290650 16.377300 -0.000001 -0.000001 16.820800 4.075290 7.541690 6.456720 -0.000001 -0.000000 7.108570 6.722600 6.555920 12.994200 -0.242716 4.980390 -91.816600 5.099420 -70.362100 5.348090 -0.000007 -0.000001 -76.835400 -16.147300 -1.880660 24.328600 0.000019 0.000005 40.708200 -41.833100 -127.783000 22.291600 -0.000001 0.000005 52.399700 4.875650 9.860100 12.994500 -0.242716 -4.980390 87.896100 5.847090 -70.170000 -5.348130 -0.000001 -0.000004 -68.866300 0.959221 -5.396270 -24.328900 0.000322 -0.000009 15.231400 -17.757200 -138.242000 -22.291500 -0.000108 -0.000004 62.702600 5.656050 -15.622100 -2.192480 -6.469440 -0.000000 -169.617000 5.486540 -4.108750 39.081100 -0.000007 -0.000012 0.507606 -0.783841 32.928000 40.985400 -0.000006 -0.000013 -0.869842 2.706600 -78.193100 11.754300 -0.000000 0.000003 0.000729 0.154296 -10.319200 -2.192510 6.469440 -0.000001 -167.311000 6.564620 -176.250000 -39.081100 -0.002282 -0.040193 0.158489 -0.474235 18.117800 -40.985400 0.000008 0.000006 5.448850 0.540875 -71.337600 -11.754300 -0.000006 -0.000006 -0.009191 0.265155 -5.802450
